<?xml version="1.0" encoding="utf-8"?>
<!-- Generator: Adobe Illustrator 18.1.0, SVG Export Plug-In . SVG Version: 6.00 Build 0)  -->
<svg version="1.1" id="Ebene_1" xmlns="http://www.w3.org/2000/svg" xmlns:xlink="http://www.w3.org/1999/xlink" x="0px" y="0px"
	 viewBox="0 0 595.3 188" enable-background="new 0 0 595.3 188" xml:space="preserve">
<g>
	<g>
		<path fill="#811518" d="M102.6,162.1c-2.1,0-4-1.1-5.6-2.3c-3.4-2.5-5.3-6.5-4-10.9c0,0,0.1,0.1,0.1,0.1c0-0.1-0.1-0.1-0.1-0.2
			c0,0,0.1,0,0.1,0c-2.1-3.6-4-7.1-5.9-10.4c-2.1-3.6-3.6-7.3-5.6-10.6c0,0-0.1,0-0.1-0.1c-0.1,0-0.3,0.1-0.3,0.1c0,0,0,0.2,0,0.2
			c-1.6-0.1-3.3-0.7-5.6-0.7c-1,0-2.1,0.7-3.1,0.7c-0.2,0-0.2-0.7-0.4-0.7c-0.9,0-1.9,0.6-2.8,0.6c-1.1,0-1.1-0.6-2.3-0.6
			c-0.5,0-0.5,0.3-1,0.3c-1.1,0-2.2,0.5-3.2,0.5c-1.9,0-3.5-0.4-4.9-0.4c-0.7,0-1.7,0.3-2.4,0.8c-1.8,1.2-3.8,1.9-6,1.9
			c-1.7,0-3.4-0.1-4.8-0.8c-3.4-1.9-5.6-6.4-5-10.1c0.7-4.3,3.9-7.6,7.9-8.2c0.8-0.1,1.2,0,1.8-1.1c1.6-2.9,3.2-5.8,4.9-8.8
			c1.6-2.8,3.4-5.7,5.2-8.6c0.7-1.2,1.1-1.9,0.4-3c-2-3.4-3.9-6.9-5.8-10.2c0,0-0.3,0.1-0.3,0.1c-1.7-3-3.8-5.9-5.6-8.8
			c-0.2-0.4-0.7-1.1-1.3-1.4c-3.9-1.7-6.6-4.6-6.7-8.5c-0.1-4.2,2.7-7.5,6.4-9c1.3-0.5,2.4-1.5,3.7-1.5c2.6,0,4.6,1.8,6.5,3.9
			c0.7,0.7,1.6,0.6,2.6,0.6c0,0,0,0.1,0.1,0.1c4.1-0.1,8.3,0.3,12.5,0.3c2.9,0,5.8,0,8.8,0c0.3,0,0.5-0.3,0.5-0.3
			c0,0-0.2-0.3-0.1-0.4c0,0,0.5,0.4,0.5,0.4c0.1-0.1-0.3-0.3-0.2-0.3c0-0.1,0.1-0.1,0.2-0.1c1.7-3.1,3.5-6.1,5.2-9.1
			c0,0-0.5-0.3-0.5-0.4c2.1-3.7,4.8-7.2,6.9-11c0,0,0.2,0,0.3,0c0,0-0.4-0.5-0.5-1.2c-0.7-4,0.8-8.1,4-10.3c1.6-1,3.6-1.6,5.6-1.6
			c2,0,4,0.7,5.6,1.8c3.1,2.1,4.8,6.1,4.2,10.2c-0.1,0.9-0.2,1.6,0.1,2c1.9,3.4,3.2,7,5.1,10.2c2,3.5,4.3,6.6,6.1,9.6
			c0,0-0.2,0.3-0.2,0.3c0,0,0.2-0.3,0.2-0.3c3.8,0,7.8,0.2,11.7,0.2c3.8,0,7.7-0.1,11.6-0.2c0,0,0.1,0.2,0.1,0.2
			c0.1,0-0.1-0.4,0-0.4c2.7-3.2,5.7-3.6,7.7-3.6c1.1,0,2.1,0.1,3.2,0.5c3.8,1.3,6.5,5.1,6.5,9.2c-0.1,4-2.7,6.9-6.9,8.6
			c-0.5,0.2-0.8,1.1-1.1,1.5c-2,3.3-3.9,6.7-5.9,10.2c-1.9,3.4-3.8,6.8-5.7,10.3c0,0,0.2,0,0.2,0c0,0.1,0.1,0,0.1,0.1
			c0,0-0.2-0.1-0.2,0c2.1,3.8,3.7,8,5.8,11.7c0,0,0.5-0.3,0.6-0.3c1.5,2.6,2.6,5.5,4.1,8.1c0.5,0.9,1.1,0.8,1.9,0.9
			c4.5,0.5,7.9,3.6,8.6,8c0.6,4-1.6,8-5.1,9.9c-1.4,0.8-2.9,1.4-4.4,1.4c-2.2,0-4.8-0.6-6.8-2.1c-0.6-0.5-1.2-0.8-1.7-0.8
			c-3,0-6.2-0.1-10.5-0.1c-1.8,0-3.5,0.1-5.3,0.1c-2.8,0-5.6,0.1-8.3,0.1c-0.1,0-0.1-0.4-0.2-0.4c0,0-0.2-0.3-0.2-0.3
			c0,0,0.3,0.4,0.3,0.4c-1.7,3-3.6,6-5.3,9c0,0-0.5-0.2-0.5-0.2c-2.2,3.8-3.6,8.1-5.8,12c-0.1,0.2-0.2,0.5-0.1,0.9
			c1,4.4-0.8,8.8-4.1,11.1C106.4,161.5,104.5,162.1,102.6,162.1z M75.5,126.2c2.3,0,4,0.5,5.6,0.5c0.1,0,0.2-0.8,0.3-0.8
			c0.1,0,0.1,0.1,0.2,0.2c0.1,0,0.5,0.1,0.6,0.2c0.1,0.1,0.2,0.2,0.3,0.3c0.1,0.1,0.1,0.2,0.2,0.4c2,3.3,3.5,7,5.6,10.6
			c1.9,3.3,3.9,6.8,6,10.4c0.1,0.1,0.3,0,0.3,0.1c0.1,0.3,0.4,0.8,0.3,1.2c0,0.1-0.6-0.1-0.7,0c-1.2,4,0.5,7.4,3.4,9.5
			c1.4,1,3,2.3,4.8,2.3c1.7,0,3.2-1,4.5-1.9c2.9-2,4.7-5.7,3.8-9.5c-0.2-0.7-0.4-1.4-0.1-1.9c2.2-3.9,3.9-8.1,6.1-11.8
			c0,0,0.4,0.2,0.5,0.1c1.7-3,3.5-6,5.2-9c0.2-0.3,0-0.4,0.3-0.6c0.3-0.2,0.3-0.4,0.7-0.4c0.1,0,0.2,0,0.3,0c2.8,0,5.6,0,8.3,0
			c1.8,0,3.5,0.3,5.3,0.3c4.2,0,7.5,0,10.5,0c0.8,0,1.9,0.5,2.7,1.1c1.8,1.4,3.8,2.5,5.7,2.5c1.4,0,2.8-0.3,4.1-1
			c3-1.7,4.7-5.6,4.1-9.1c-0.6-3.8-3.5-6.1-7.4-6.6c-1.2-0.1-1.8-0.9-2.5-2.1c-1.5-2.6-3.4-5.1-4.9-7.7c0,0,0.7-0.4,0.7-0.4
			c-2.1-3.7-5-7.2-7.1-11c-0.1-0.1,0.7-0.4,0.6-0.6c0-0.1-0.6,0-0.6-0.2c0-0.2,0.1-0.4,0.1-0.5c0-0.1,0.4,0,0.4-0.1c0-0.1,0,0,0-0.1
			c1.9-3.5,3.6-7,5.6-10.4c2-3.5,3.6-7.1,5.6-10.4c0.4-0.6,1.6-0.8,2.3-1.1c3.7-1.5,5.9-4.8,5.9-8.2c0-3.5-2.3-7-5.7-8.2
			c-1-0.3-2-0.5-2.9-0.5c-1.7,0-3.9,1-6.2,3.8c0,0-0.5-0.3-0.5-0.3c-0.2,0.2-0.5,0.1-0.6,0.1c-0.1,0.1,0.1,0.6-0.1,0.6
			c-0.1,0-0.2,0.2-0.3,0.2c-3.9,0-7.8,0-11.6,0c-3.9,0-7.8-0.1-11.7-0.1c-0.4,0-0.6,0.3-0.9,0.1c-0.3-0.2-0.2-0.5-0.4-0.8
			c-1.8-3-3.2-6.6-5.2-10.1c-1.8-3.2-4.1-6.3-5.9-9.7c-0.4-0.7-0.2-1.9,0-3c0.6-3.6-1-6.9-3.7-8.7c-1.4-0.9-3-1.5-4.8-1.5
			c-1.7,0-3.3,0.6-4.6,1.5c-2.8,1.9-4.3,5.1-3.7,8.7c0.1,0.9,0.4,1.4,0.4,1.6c0,0.1-0.3,0-0.3,0.1c0,0.1,0,0.1,0,0.2
			c-2.1,3.8-4.3,7.6-6.5,11.3c0,0-0.3-0.1-0.4-0.1c-1.7,3-3,6.4-4.7,9.4c0,0,0,0,0,0c0,0.3,0.3,0.6,0.1,0.8c-0.4,0.4-0.5,0.4-1,0.5
			c-0.2,0.1-0.6,0.2-1,0.2c-2.9,0-5.9-0.3-8.8-0.3c-4.2,0-8.4-0.7-12.5-0.6c0,0,0,0.6-0.1,0.6c-1.4,0-2.1-0.7-3-1.7
			c-1.7-1.9-4-2.5-6.2-2.5c-1.1,0-2.1,0.3-3.3,0.8c-3.2,1.3-5.4,4.2-5.3,7.9c0.1,3.4,2.2,5.9,5.7,7.4c0.9,0.4,2.1,1,2.5,1.6
			c1.8,3,3.5,6.1,5.2,9.1c0,0,0,0,0,0.1c1.9,3.3,3.9,6.8,6,10.1c0.9,1.6,1,3,0,4.6c-1.8,2.9-3.8,5.6-5.5,8.4
			c-1.7,2.9-3.7,5.6-5.3,8.5c-0.9,1.5-1.2,2.3-2.3,2.5c-3.5,0.6-6,3-6.6,6.7c-0.5,3.3,0.9,7.2,3.9,8.9c1.2,0.7,2.8,0.2,4.3,0.2
			c1.9,0,3.6-0.4,5.1-1.5c0.9-0.6,2.3-0.9,3.2-0.9c1.4-0.1,3-0.1,4.9-0.1c1.1,0,2.1,0.2,3.2,0.2c0.2,0,0.2-0.1,0.4-0.1
			c0.3,0,0.3,0.2,0.6,0.2c1.1,0,1.1-0.3,2.2-0.3c0.9,0,1.9,0,2.8,0c0.2,0,0.2,0.4,0.3,0.4C73.4,126.6,74.5,126.2,75.5,126.2z"/>
	</g>
</g>
<g>
	<path fill="#003D6B" d="M556.5,55.1c-4.9-1.7-5.2,0.6-10.4,0.6c-5.2,0-5.2-0.3-10.3-0.3c-5.2,0-5.2-0.3-10.3-0.3
		c-5.2,0-5.2,0.2-10.3,0.2c-5.2,0-5.2,0-10.3,0c-5.2,0-5.2,0.2-10.3,0.2c-5.2,0-5.2-0.2-10.3-0.2c-5.2,0-5.2,0-10.3,0
		c-5.2,0-5.2-0.4-10.3-0.4c-5.2,0-5.2,0.6-10.3,0.6c-5.2,0-5.2,0.1-10.3,0.1c-5.2,0-5.2-0.8-10.3-0.8c-5.2,0-5.2,0.7-10.3,0.7
		c-5.2,0-5.2-0.4-10.3-0.4c-5.2,0-5.2-0.1-10.3-0.1c-5.2,0-5.2,0.3-10.3,0.3c-5.2,0-5.2,0.2-10.3,0.2c-5.2,0-5.2-0.5-10.3-0.5
		c-5.2,0-5.2,0-10.3,0c-5.2,0-5.2-0.1-10.3-0.1c-5.2,0-5.2,0.2-10.3,0.2c-5.2,0-5.2,0.7-10.3,0.7c-5.2,0-5.2-0.1-10.3-0.1
		c-5.2,0-5.2-0.5-10.3-0.5c-5.2,0-5.2,0.4-10.3,0.4c-5.2,0-5.2-0.2-10.3-0.2c-5.2,0-5.2-0.2-10.3-0.2c-5.2,0-5.2,0-10.3,0
		c-5.2,0-5.2,0.4-10.3,0.4c-5.2,0-5.2-0.7-10.3-0.7c-5.2,0-5.2,0.2-10.3,0.2c-5.2,0-5.2,0-10.3,0c-5.2,0-5.2,0.3-10.3,0.3
		c-5.2,0-5.2,0.2-10.3,0.2c-5.2,0-5.2-0.9-10.3-0.9c-5.2,0-5.4-1-10.2,0.7c-1.7,0.6-1.9,3-0.2,3.6c4.9,1.7,5.3-0.5,10.4-0.5
		c5.2,0,5.2,0.4,10.3,0.4c5.2,0,5.2-0.2,10.3-0.2c5.2,0,5.2,0,10.3,0c5.2,0,5.2,0.4,10.3,0.4c5.2,0,5.2-0.4,10.3-0.4
		c5.2,0,5.2,0.3,10.3,0.3c5.2,0,5.2,0.2,10.3,0.2c5.2,0,5.2-0.1,10.3-0.1c5.2,0,5.2,0.1,10.3,0.1c5.2,0,5.2-0.2,10.3-0.2
		c5.2,0,5.2-0.7,10.3-0.7c5.2,0,5.2,0.1,10.3,0.1c5.2,0,5.2,0.2,10.3,0.2c5.2,0,5.2-0.4,10.3-0.4c5.2,0,5.2,0.6,10.3,0.6
		c5.2,0,5.2-0.6,10.3-0.6c5.2,0,5.2,0.6,10.3,0.6c5.2,0,5.2-0.2,10.3-0.2c5.2,0,5.2-0.2,10.3-0.2c5.2,0,5.2,0.7,10.3,0.7
		c5.2,0,5.2-0.8,10.3-0.8c5.2,0,5.2,0.6,10.3,0.6c5.2,0,5.2-0.3,10.3-0.3c5.2,0,5.2,0.3,10.3,0.3c5.2,0,5.2-0.6,10.3-0.6
		c5.2,0,5.2,0.4,10.3,0.4c5.2,0,5.2-0.2,10.3-0.2c5.2,0,5.2,0,10.3,0c5.2,0,5.2,0.5,10.3,0.5c5.2,0,5.2-0.3,10.3-0.3
		c5.2,0,5.2,0.1,10.3,0.1c5.2,0,5.2-0.2,10.3-0.2c5.2,0,5.2,0.4,10.3,0.4c5.2,0,5.2,0.2,10.3,0.2s5.5,1.2,10.5-0.1
		C558.6,58.8,558.2,55.7,556.5,55.1z"/>
</g>
<g>
	<path fill="#003D6B" d="M556.4,124.4c-4.9-1.7-5.1-0.6-10.3-0.6c-5.2,0-5.2,0.8-10.3,0.8c-5.2,0-5.2-0.4-10.3-0.4
		c-5.2,0-5.2,0.4-10.3,0.4c-5.2,0-5.2-0.2-10.3-0.2c-5.2,0-5.2-0.7-10.3-0.7c-5.2,0-5.2,0.8-10.3,0.8c-5.2,0-5.2-0.5-10.3-0.5
		c-5.2,0-5.2,0.6-10.3,0.6c-5.2,0-5.2-0.9-10.3-0.9c-5.2,0-5.2,0.2-10.3,0.2c-5.2,0-5.2,0.7-10.3,0.7c-5.2,0-5.2-0.9-10.3-0.9
		c-5.2,0-5.2,0.8-10.3,0.8c-5.2,0-5.2-0.1-10.3-0.1c-5.2,0-5.2,0.1-10.3,0.1c-5.2,0-5.2-0.3-10.3-0.3c-5.2,0-5.2-0.4-10.3-0.4
		c-5.2,0-5.2,0.2-10.3,0.2c-5.2,0-5.2,0.2-10.3,0.2c-5.2,0-5.2,0-10.3,0c-5.2,0-5.2-0.2-10.3-0.2c-5.2,0-5.2,0.2-10.3,0.2
		c-5.2,0-5.2-0.4-10.3-0.4c-5.2,0-5.2,0.6-10.3,0.6c-5.2,0-5.2-0.2-10.3-0.2c-5.2,0-5.2-0.2-10.3-0.2c-5.2,0-5.2-0.2-10.3-0.2
		c-5.2,0-5.2,0-10.3,0c-5.2,0-5.2,0-10.3,0c-5.2,0-5.2,0.4-10.3,0.4c-5.2,0-5.2,0.4-10.3,0.4c-5.2,0-5.2-0.3-10.3-0.3
		c-5.2,0-5.2,0-10.3,0c-5.2,0-5.2,0-10.3,0c-5.2,0-5.5-1.8-10.4-0.1c-1.7,0.6-1.6,2.9,0.1,3.5c4.9,1.7,5.1,0.3,10.2,0.3
		c5.2,0,5.2,0.3,10.3,0.3c5.2,0,5.2-0.2,10.3-0.2c5.2,0,5.2-0.6,10.3-0.6c5.2,0,5.2,0.5,10.3,0.5c5.2,0,5.2-0.1,10.3-0.1
		c5.2,0,5.2,0.1,10.3,0.1c5.2,0,5.2-0.3,10.3-0.3c5.2,0,5.2,0.6,10.3,0.6c5.2,0,5.2,0.2,10.3,0.2c5.2,0,5.2-0.3,10.3-0.3
		c5.2,0,5.2,0,10.3,0c5.2,0,5.2-0.4,10.3-0.4c5.2,0,5.2,0.3,10.3,0.3c5.2,0,5.2,0.1,10.3,0.1c5.2,0,5.2-0.3,10.3-0.3
		c5.2,0,5.2,0.4,10.3,0.4c5.2,0,5.2-0.6,10.3-0.6c5.2,0,5.2,0,10.3,0c5.2,0,5.2,0.3,10.3,0.3c5.2,0,5.2-0.2,10.3-0.2
		c5.2,0,5.2,0.6,10.3,0.6c5.2,0,5.2-0.6,10.3-0.6c5.2,0,5.2,0.1,10.3,0.1c5.2,0,5.2,0.1,10.3,0.1c5.2,0,5.2,0.3,10.3,0.3
		c5.2,0,5.2,0.1,10.3,0.1c5.2,0,5.2-0.2,10.3-0.2c5.2,0,5.2-0.4,10.3-0.4c5.2,0,5.2,0.7,10.3,0.7c5.2,0,5.2-0.2,10.3-0.2
		c5.2,0,5.2-0.6,10.3-0.6c5.2,0,5.2,0.6,10.3,0.6c5.2,0,5.2-0.7,10.3-0.7c5.2,0,5.2,0.8,10.3,0.8s5.3,0.6,10.3-0.6
		C558.3,127.2,558.1,125,556.4,124.4z"/>
</g>
<text transform="matrix(1 0 0 1 188.3252 113.4854)"><tspan x="0" y="0" fill="#003D6B" font-family="'HWTAmericanShopworn-Regular'" font-size="48.9468">s</tspan><tspan x="38.3" y="0" fill="#003D6B" font-family="'HWTAmericanShopworn-Regular'" font-size="48.9468" letter-spacing="-2">ha</tspan><tspan x="131.4" y="0" fill="#003D6B" font-family="'HWTAmericanShopworn-Regular'" font-size="48.9468" letter-spacing="-1">r</tspan><tspan x="177" y="0" fill="#003D6B" font-family="'HWTAmericanShopworn-Regular'" font-size="48.9468">if</tspan><tspan x="244.1" y="0" fill="#003D6B" font-family="'HWTAmericanShopworn-Regular'" font-size="48.9468">f</tspan><tspan x="286" y="0" fill="#811518" font-family="'HWTAmericanShopworn-Regular'" font-size="48.9468" letter-spacing="-1">j</tspan><tspan x="326.2" y="0" fill="#811518" font-family="'HWTAmericanShopworn-Regular'" font-size="48.9468">s</tspan></text>
<g>
	<path fill="#811518" d="M258.4,153.5c0-1.4,0.5-3.5,1.5-6.3c-0.5-0.1-0.8-0.2-1-0.2v-0.9c0.4,0.1,0.9,0.1,1.3,0.1
		c0.8-2.1,1.7-3.8,2.6-5.3c0.9-1.5,1.7-2.2,2.3-2.2c0.2,0,0.4,0.1,0.5,0.2c0.2,0.1,0.2,0.3,0.2,0.6c0,0.3-0.2,0.8-0.5,1.5
		c-0.3,0.6-0.8,1.5-1.5,2.6c-0.6,1.1-1.1,2-1.5,2.8c2.1,0,3.8-0.1,5-0.2v1c-2.2,0.2-4,0.3-5.5,0.3c-0.9,2.3-1.4,4.1-1.4,5.5
		c0,0.8,0.1,1.3,0.4,1.6c0.2,0.3,0.6,0.5,1.1,0.5c0.9,0,1.8-0.4,2.8-1.3c1-0.8,1.8-2,2.5-3.4l0.4,0.3c-0.7,1.7-1.7,3.1-2.9,4.2
		c-1.2,1.1-2.4,1.6-3.7,1.6c-0.8,0-1.5-0.2-2-0.7C258.7,155.2,258.4,154.5,258.4,153.5z"/>
	<path fill="#811518" d="M266.9,153.5c0-1.2,0.3-2.4,1-3.5c0.7-1.2,1.4-1.7,2.2-1.7c0.2,0,0.5,0.1,0.8,0.2c0.1-0.8,0.4-1.6,0.9-2.1
		c0.5-0.6,1.1-0.8,2-0.8c0.8,0,1.3,0.2,1.7,0.6c0.4,0.4,0.5,1,0.5,1.6c0,1.3-0.6,2.8-1.9,4.7c0.2,0.1,0.5,0.2,0.8,0.2
		c0.5,0,1.1-0.2,1.6-0.5c0.6-0.3,1-0.9,1.3-1.6l0.5,0.4c-0.4,0.9-0.9,1.5-1.5,2c-0.6,0.5-1.3,0.7-2,0.7c-0.4,0-0.9-0.1-1.4-0.2
		c-1.5,1.8-3,2.7-4.5,2.7c-0.8,0-1.3-0.2-1.6-0.7C267,154.8,266.9,154.2,266.9,153.5z M269,153.4c0,0.8,0.3,1.3,0.9,1.3
		c0.6,0,1.5-0.6,2.6-1.9c-1-0.9-1.5-2.3-1.6-4c-0.3,0.2-0.8,0.8-1.2,1.9C269.3,151.7,269,152.6,269,153.4z M272.5,149.2
		c0,0.4,0.1,0.9,0.2,1.4c0.1,0.5,0.3,1,0.6,1.3c1.1-1.5,1.6-2.9,1.6-4.1c0-0.8-0.3-1.2-0.8-1.2c-0.4,0-0.8,0.3-1.1,0.8
		C272.6,147.8,272.5,148.4,272.5,149.2z"/>
	<path fill="#811518" d="M285.9,152.5c0-1.4,0.4-2.3,1.3-2.9c0.8-0.6,1.8-0.9,3-0.9c-1.2,1.2-1.8,2.5-1.8,3.8c0,1,0.4,1.8,1.1,2.5
		c0.8,0.7,1.8,1,3.2,1c1.3,0,2.5-0.3,3.5-1c1-0.7,1.5-1.6,1.5-2.7c0-0.8-0.3-1.6-0.9-2.2c-0.6-0.7-1.3-1.2-2.2-1.7l-2.6-1.4
		c-0.9-0.5-1.6-1.1-2.2-1.8c-0.6-0.7-0.9-1.6-0.9-2.5c0-1,0.3-2.1,0.9-3.2c0.6-1.1,1.6-2.1,2.8-2.9c1.3-0.8,2.7-1.2,4.2-1.2
		c2.3,0,3.4,1,3.4,2.9c0,0.9-0.2,2-0.7,3.1c-0.4,1.1-0.9,2.1-1.5,3c-0.8-0.2-1.2-0.6-1.2-1.4c0-0.5,0.3-1.4,0.8-2.8
		c0.5-1.3,0.8-2.3,0.8-2.8c0-0.3-0.1-0.6-0.3-0.8c-0.2-0.2-0.6-0.3-1.2-0.3c-1.6,0-3,0.6-4.2,1.9c-1.2,1.3-1.8,2.5-1.8,3.7
		c0,0.7,0.3,1.4,0.9,1.9c0.6,0.6,1.3,1.1,2.2,1.5c0.9,0.4,1.7,0.9,2.6,1.4c0.8,0.5,1.6,1.1,2.2,1.9c0.6,0.8,0.9,1.7,0.9,2.8
		c0,1.8-0.8,3.2-2.3,4.3c-1.5,1.1-3.3,1.6-5.2,1.6c-1.7,0-3.2-0.4-4.4-1.3C286.5,155.4,285.9,154.1,285.9,152.5z"/>
	<path fill="#811518" d="M302.2,153.1c0-1.6,0.5-3.8,1.5-6.7c1-2.8,2.2-5.3,3.6-7.5c1.4-2.2,2.5-3.3,3.3-3.3c0.4,0,0.6,0.2,0.8,0.6
		c0.2,0.4,0.3,0.8,0.3,1.3c0,1.4-0.7,3.2-2,5.5c-1.3,2.3-2.8,3.9-4.4,4.8c-0.6,1.6-0.9,3.2-0.9,4.6c0,0.1,0,0.2,0,0.3
		c0,0.1,0,0.2,0,0.3c0-0.1,0.2-0.3,0.3-0.8c0.2-0.5,0.4-1,0.7-1.6c0.3-0.6,0.6-1.1,1-1.7c0.4-0.6,0.9-1.1,1.5-1.5
		c0.6-0.4,1.3-0.6,1.9-0.6c0.8,0,1.4,0.3,1.8,0.8c0.4,0.5,0.6,1.1,0.6,1.8c0,0.6-0.2,1.4-0.6,2.4c-0.4,0.9-0.6,1.6-0.6,2
		c0,0.6,0.2,0.9,0.7,0.9h0c0.6,0,1.3-0.4,2.2-1.3c0.9-0.9,1.6-1.9,2.2-3.1l0.4,0.5c-0.7,1.5-1.5,2.7-2.4,3.6c-1,0.9-2,1.4-3.1,1.4
		c-0.7,0-1.2-0.2-1.6-0.5c-0.4-0.4-0.6-0.8-0.6-1.4c0-0.4,0.1-1,0.4-2c0.3-0.9,0.4-1.6,0.4-2c0-0.8-0.3-1.1-1-1.1
		c-0.6,0-1.2,0.4-1.7,1.2c-0.5,0.8-1,1.6-1.3,2.5c-0.3,0.9-0.7,1.8-1.2,2.5c-0.5,0.8-0.9,1.2-1.4,1.2c-0.4,0-0.7-0.3-0.8-0.9
		C302.3,154.7,302.2,154,302.2,153.1z M305.9,146.1c1.1-1,2.2-2.4,3.1-4.2c1-1.8,1.5-3,1.5-3.7c-0.4,0.1-1.1,1.1-2.1,2.7
		C307.3,142.6,306.5,144.3,305.9,146.1z"/>
	<path fill="#811518" d="M315.5,154c0-1.1,0.4-2.2,1.1-3.5c0.7-1.3,1.7-2.4,3-3.3c1.2-0.9,2.4-1.4,3.6-1.4c0.8,0,1.4,0.2,1.9,0.6
		c0.5,0.4,0.8,0.9,0.8,1.6c0,0.8-0.5,1.3-1.5,1.3c0.6,0.2,0.9,0.5,0.9,0.8c0,0.2-0.3,0.8-0.8,1.7c-0.5,0.9-0.8,1.5-0.8,2
		c0,0.7,0.3,1,0.8,1c0.5,0,1.2-0.4,2-1.1c0.8-0.7,1.6-1.8,2.3-3.2l0.5,0.5c-0.7,1.5-1.5,2.7-2.5,3.7c-1,0.9-2,1.4-3,1.4
		c-0.7,0-1.3-0.2-1.7-0.7c-0.4-0.5-0.6-1-0.6-1.7c-0.8,1-1.5,1.7-2.1,2.2c-0.6,0.5-1.2,0.7-1.9,0.7c-0.6,0-1.2-0.2-1.6-0.6
		C315.7,155.4,315.5,154.8,315.5,154z M317.7,154.2c0,0.6,0.2,0.9,0.6,0.9c0.2,0,0.5-0.1,0.8-0.2c0.3-0.1,0.6-0.3,0.9-0.6l0.8-0.8
		c0.3-0.3,0.6-0.6,0.9-1.1l0.8-1l0.8-1.1l0.7-0.9c0.1-0.1,0.1-0.1,0.2-0.1h0.1l0.1,0c0.1-0.3,0.1-0.6,0.1-1c0-0.9-0.4-1.4-1.2-1.4
		c-1.2,0-2.4,0.9-3.7,2.7C318.3,151.2,317.7,152.8,317.7,154.2z"/>
	<path fill="#811518" d="M329.1,151.6c0.8-1.5,1.6-3.1,2.2-5c-0.2-0.2-0.3-0.4-0.3-0.7c0-0.5,0.1-0.9,0.4-1.3
		c0.3-0.4,0.5-0.6,0.8-0.6c0.2,0,0.4,0.1,0.5,0.3c0.1,0.2,0.2,0.4,0.2,0.5c0,0.1-0.1,0.3-0.2,0.5c-0.1,0.3-0.2,0.4-0.2,0.5
		c0,0.2,0.2,0.4,0.5,0.6c0.3,0.2,0.7,0.5,1,0.7c0.4,0.2,0.7,0.5,1,1c0.3,0.4,0.5,0.9,0.5,1.4c0,0.6-0.2,1.4-0.7,2.4
		c-0.5,1-0.7,1.7-0.7,2c0,0.4,0.2,0.6,0.7,0.6c0.8,0,1.7-0.5,2.7-1.4s1.7-1.8,2.1-2.7l0.7,0.5c-0.6,1.3-1.4,2.4-2.6,3.4
		c-1.2,1-2.4,1.5-3.5,1.5c-0.7,0-1.2-0.2-1.6-0.5s-0.6-0.8-0.6-1.5c0-0.5,0.3-1.4,0.8-2.5c0.5-1.1,0.8-1.9,0.8-2.4
		c0-0.7-0.5-1.3-1.4-1.8c-0.7,1.8-1.5,3.5-2.5,5.1L329.1,151.6z"/>
	<path fill="#811518" d="M339.2,153.1c0-1.7,0.8-3.4,2.3-5.1c1.5-1.8,3.1-2.6,4.8-2.6c1.4,0,2,0.6,2,1.8c0,1.3-0.7,2.5-2.2,3.5
		c-1.4,1-3,1.6-4.8,1.8c0,0.2-0.1,0.4-0.1,0.6c0,0.2,0,0.4,0,0.5c0,0.2,0.1,0.4,0.2,0.7c0.1,0.3,0.3,0.5,0.7,0.7
		c0.3,0.2,0.7,0.3,1.2,0.3c1.1,0,2.2-0.5,3.4-1.4c1.2-0.9,2.1-2,2.8-3.4l0.5,0.4c-0.7,1.6-1.8,3-3.1,3.9c-1.4,1-2.8,1.5-4.2,1.5
		c-1.1,0-2-0.3-2.7-0.9C339.5,154.8,339.2,154,339.2,153.1z M341.7,151.4c1.1-0.1,2.2-0.7,3.4-1.6c1.2-0.9,1.8-1.9,1.8-2.8
		c0-0.3-0.2-0.5-0.5-0.5c-0.8,0-1.7,0.5-2.6,1.6C342.8,149.1,342.1,150.2,341.7,151.4z"/>
	<path fill="#811518" d="M356.8,154c0-1.1,0.4-2.2,1.1-3.5c0.7-1.3,1.7-2.4,3-3.3c1.2-0.9,2.4-1.4,3.6-1.4c0.8,0,1.4,0.2,1.9,0.6
		c0.5,0.4,0.8,0.9,0.8,1.6c0,0.8-0.5,1.3-1.5,1.3c0.6,0.2,0.9,0.5,0.9,0.8c0,0.2-0.3,0.8-0.8,1.7c-0.5,0.9-0.8,1.5-0.8,2
		c0,0.7,0.3,1,0.8,1c0.5,0,1.2-0.4,2-1.1c0.8-0.7,1.6-1.8,2.3-3.2l0.5,0.5c-0.7,1.5-1.5,2.7-2.5,3.7c-1,0.9-2,1.4-3,1.4
		c-0.7,0-1.3-0.2-1.7-0.7c-0.4-0.5-0.6-1-0.6-1.7c-0.8,1-1.5,1.7-2.1,2.2c-0.6,0.5-1.2,0.7-1.9,0.7c-0.6,0-1.2-0.2-1.6-0.6
		C357,155.4,356.8,154.8,356.8,154z M359,154.2c0,0.6,0.2,0.9,0.6,0.9c0.2,0,0.5-0.1,0.8-0.2c0.3-0.1,0.6-0.3,0.9-0.6l0.8-0.8
		c0.3-0.3,0.6-0.6,0.9-1.1l0.8-1l0.8-1.1l0.7-0.9c0.1-0.1,0.1-0.1,0.2-0.1h0.1l0.1,0c0.1-0.3,0.1-0.6,0.1-1c0-0.9-0.4-1.4-1.2-1.4
		c-1.2,0-2.4,0.9-3.7,2.7C359.6,151.2,359,152.8,359,154.2z"/>
	<path fill="#811518" d="M369.3,154.8c0,0,0.2-0.4,0.5-1.2c0.3-0.8,0.6-1.7,0.9-2.7c0.3-1,0.4-1.8,0.4-2.5c0.4-0.4,0.9-0.6,1.4-0.6
		c0.6,0,0.9,0.3,0.9,0.8c0,0.5-0.2,1.3-0.5,2.4c1.9-2.4,3.6-3.7,5.2-3.7c0.7,0,1.3,0.2,1.7,0.7c0.4,0.5,0.6,1.1,0.6,1.8
		c0,0.6-0.2,1.3-0.5,2.2c-0.4,0.9-0.5,1.5-0.5,1.9c0,0.5,0.2,0.8,0.7,0.8c0.6,0,1.3-0.4,2-1.2c0.7-0.8,1.3-1.8,1.9-2.9l0.5,0.4
		c-1.4,3.3-3.1,4.9-4.9,4.9c-0.7,0-1.2-0.2-1.6-0.5c-0.4-0.3-0.6-0.8-0.6-1.4c0-0.4,0.1-1,0.4-1.8c0.3-0.8,0.4-1.4,0.4-1.8
		c0-0.7-0.3-1.1-1-1.1c-0.5,0-1,0.2-1.6,0.6c-0.6,0.4-1.2,1-1.8,1.8c-0.6,0.8-1.1,1.5-1.4,1.9l-1.3,2.1
		C370.3,155.6,369.7,155.3,369.3,154.8z"/>
	<path fill="#811518" d="M383.5,153.5c0-1,0.4-2.2,1.1-3.5s1.7-2.4,3-3.4c1.2-1,2.5-1.5,3.7-1.5c0.9,0,1.3,0.3,1.3,0.9
		c0,0.3-0.1,0.5-0.3,0.6c-0.1-0.2-0.5-0.3-1-0.3c-0.9,0-1.8,0.4-2.7,1.3c-0.9,0.9-1.6,1.8-2,2.8c-0.5,1-0.7,1.9-0.7,2.6
		c0,0.8,0.3,1.1,0.9,1.1c0.8,0,1.7-0.7,2.9-2c1.1-1.3,2.1-3.1,3-5.2l1.1-2.7l1.1-2.6c0.4-1.1,0.8-1.9,1.1-2.5c0.3-0.6,0.7-1.2,1-1.9
		c0.4-0.7,0.7-1.1,1-1.4c0.3-0.3,0.6-0.5,0.9-0.5c0.2,0,0.4,0.1,0.5,0.2c0.2,0.2,0.2,0.4,0.2,0.6c0,0.4-0.3,1.3-1,2.6l-2.1,4.4
		c-0.8,1.5-1.5,3.2-2.1,5.1c-0.7,1.9-1,3.5-1,4.8c0,0.4,0,0.7,0.1,0.9c0.1,0.2,0.2,0.2,0.4,0.2c0.6,0,1.3-0.4,2.1-1.1
		c0.8-0.7,1.5-1.7,2.1-2.9l0.5,0.4c-0.6,1.5-1.4,2.7-2.5,3.7c-1.1,1-2.1,1.4-3.1,1.4c-1.3,0-2-0.8-2-2.4c0-0.4,0.1-1,0.2-1.8
		c-0.9,1.3-1.8,2.4-2.8,3.1c-1,0.8-1.8,1.2-2.6,1.2c-0.6,0-1.1-0.2-1.6-0.6C383.7,154.9,383.5,154.3,383.5,153.5z"/>
	<path fill="#811518" d="M406.8,156c0-0.3,0.1-0.8,0.4-1.5l2.1-6.5c0.5-1.4,1.1-3.1,1.9-5.2c0.8-2.1,1.6-4.1,2.5-6
		c-0.6,0.1-1.2,0.3-1.7,0.6c-0.6,0.2-1,0.5-1.3,0.6c-0.3,0.2-0.5,0.2-0.6,0.2c-0.2,0-0.4-0.1-0.6-0.4c-0.3-0.3-0.4-0.5-0.4-0.7
		c2.4-1,4.6-1.5,6.4-1.5c1.2,0,2.4,0.2,3.5,0.6c1.1,0.4,2.1,1,2.9,1.8c0.8,0.8,1.2,1.8,1.2,2.9c0,1.1-0.3,2.1-1,2.9
		c-0.6,0.8-1.4,1.5-2.3,1.9c-0.9,0.4-1.9,0.8-3,1.1c-1.1,0.3-2,0.4-2.8,0.5c-0.7,0.1-1.4,0.1-1.9,0.1h-0.2l-2.9,10.3
		c-0.6,0-1.1-0.2-1.6-0.5C407,156.8,406.8,156.4,406.8,156z M412.2,146.4c1.5-0.1,2.8-0.4,4.1-0.8c1.2-0.4,2.3-1.1,3.2-2
		c0.9-0.9,1.3-2,1.3-3.2c0-1.3-0.5-2.2-1.5-2.9c-1-0.7-2.1-1-3.5-1.1C414.7,138.5,413.5,141.9,412.2,146.4z"/>
	<path fill="#811518" d="M420.5,155.2c0.4-0.5,1-1.7,1.8-3.4c0.8-1.7,1.4-3.5,1.9-5.1c-0.2-0.2-0.3-0.4-0.3-0.7
		c0-0.5,0.2-0.9,0.5-1.3c0.3-0.4,0.6-0.6,1-0.6c0.3,0,0.5,0.2,0.5,0.7c0,0.2-0.1,0.4-0.2,0.7c-0.1,0.3-0.2,0.4-0.2,0.5
		c0,0.2,0.3,0.4,0.8,0.7c0.5,0.3,1,0.7,1.5,1.2c0.5,0.5,0.8,1.1,0.8,1.8c0,0.6-0.2,1.4-0.7,2.4c-0.4,1-0.7,1.7-0.7,2
		c0,0.4,0.2,0.6,0.7,0.6c0.8,0,1.7-0.5,2.6-1.4c0.9-0.9,1.6-1.8,2-2.7l0.5,0.5c-0.6,1.3-1.4,2.5-2.5,3.5c-1.1,1-2.2,1.5-3.4,1.5
		c-0.7,0-1.2-0.2-1.6-0.5c-0.4-0.4-0.6-0.8-0.6-1.4c0-0.5,0.2-1.4,0.7-2.5c0.5-1.2,0.7-2,0.7-2.4c0-0.7-0.4-1.3-1.3-1.8
		c-0.6,1.7-1.2,3.4-2,5.1c-0.8,1.7-1.5,2.8-1.9,3.3L420.5,155.2z"/>
	<path fill="#811518" d="M432.3,153.5c0-1.2,0.3-2.4,1-3.5c0.7-1.2,1.4-1.7,2.2-1.7c0.2,0,0.5,0.1,0.8,0.2c0.1-0.8,0.4-1.6,0.9-2.1
		c0.5-0.6,1.1-0.8,2-0.8c0.8,0,1.3,0.2,1.7,0.6c0.4,0.4,0.5,1,0.5,1.6c0,1.3-0.6,2.8-1.9,4.7c0.2,0.1,0.5,0.2,0.8,0.2
		c0.5,0,1.1-0.2,1.6-0.5c0.6-0.3,1-0.9,1.3-1.6l0.5,0.4c-0.4,0.9-0.9,1.5-1.5,2c-0.6,0.5-1.3,0.7-2,0.7c-0.4,0-0.9-0.1-1.4-0.2
		c-1.5,1.8-3,2.7-4.5,2.7c-0.8,0-1.3-0.2-1.6-0.7C432.4,154.8,432.3,154.2,432.3,153.5z M434.5,153.4c0,0.8,0.3,1.3,0.9,1.3
		c0.6,0,1.5-0.6,2.6-1.9c-1-0.9-1.5-2.3-1.6-4c-0.3,0.2-0.8,0.8-1.2,1.9C434.7,151.7,434.5,152.6,434.5,153.4z M437.9,149.2
		c0,0.4,0.1,0.9,0.2,1.4c0.1,0.5,0.3,1,0.6,1.3c1.1-1.5,1.6-2.9,1.6-4.1c0-0.8-0.3-1.2-0.8-1.2c-0.4,0-0.8,0.3-1.1,0.8
		C438.1,147.8,437.9,148.4,437.9,149.2z"/>
	<path fill="#811518" d="M443.3,153.5c0-1.4,0.5-3.5,1.5-6.3c-0.5-0.1-0.8-0.2-1-0.2v-0.9c0.4,0.1,0.9,0.1,1.3,0.1
		c0.8-2.1,1.7-3.8,2.6-5.3c0.9-1.5,1.7-2.2,2.3-2.2c0.2,0,0.4,0.1,0.5,0.2c0.2,0.1,0.2,0.3,0.2,0.6c0,0.3-0.2,0.8-0.5,1.5
		c-0.3,0.6-0.8,1.5-1.5,2.6c-0.6,1.1-1.1,2-1.5,2.8c2.1,0,3.8-0.1,5-0.2v1c-2.2,0.2-4,0.3-5.5,0.3c-0.9,2.3-1.4,4.1-1.4,5.5
		c0,0.8,0.1,1.3,0.4,1.6c0.2,0.3,0.6,0.5,1.1,0.5c0.9,0,1.8-0.4,2.8-1.3c1-0.8,1.8-2,2.5-3.4l0.4,0.3c-0.7,1.7-1.7,3.1-2.9,4.2
		c-1.2,1.1-2.4,1.6-3.7,1.6c-0.8,0-1.5-0.2-2-0.7C443.5,155.2,443.3,154.5,443.3,153.5z"/>
	<path fill="#811518" d="M451.6,153.1c0-1.7,0.8-3.4,2.3-5.1c1.5-1.8,3.1-2.6,4.8-2.6c1.4,0,2,0.6,2,1.8c0,1.3-0.7,2.5-2.2,3.5
		c-1.4,1-3,1.6-4.8,1.8c0,0.2-0.1,0.4-0.1,0.6c0,0.2,0,0.4,0,0.5c0,0.2,0.1,0.4,0.2,0.7c0.1,0.3,0.3,0.5,0.7,0.7
		c0.3,0.2,0.7,0.3,1.2,0.3c1.1,0,2.2-0.5,3.4-1.4c1.2-0.9,2.1-2,2.8-3.4l0.5,0.4c-0.7,1.6-1.8,3-3.1,3.9c-1.4,1-2.8,1.5-4.2,1.5
		c-1.1,0-2-0.3-2.7-0.9C451.9,154.8,451.6,154,451.6,153.1z M454,151.4c1.1-0.1,2.2-0.7,3.4-1.6c1.2-0.9,1.8-1.9,1.8-2.8
		c0-0.3-0.2-0.5-0.5-0.5c-0.8,0-1.7,0.5-2.6,1.6C455.1,149.1,454.4,150.2,454,151.4z"/>
	<path fill="#811518" d="M461.9,153.1c0-1.8,0.6-3.4,1.9-4.9c1.3-1.5,2.7-2.2,4.2-2.2c0.7,0,1.2,0.2,1.6,0.5
		c0.3,0.4,0.5,0.8,0.5,1.4c0,0.5-0.1,1.1-0.4,1.5c-0.2,0.5-0.6,0.7-0.9,0.7c-0.3,0-0.6-0.2-0.8-0.5c0.6-0.4,0.9-1.1,0.9-2.1
		c0-0.3-0.2-0.5-0.5-0.5c-0.9,0-1.8,0.7-2.8,2.2c-1,1.5-1.5,2.8-1.5,4.1c0,1.4,0.6,2.1,1.9,2.1h0c1.1,0,2.2-0.5,3.3-1.4
		c1.1-0.9,2-2.1,2.6-3.5l0.5,0.5c-0.7,1.7-1.7,3-3,4.1c-1.4,1.1-2.8,1.6-4.2,1.6c-1,0-1.8-0.3-2.4-0.9
		C462.2,155.2,461.9,154.3,461.9,153.1z"/>
	<path fill="#811518" d="M471.7,153.5c0-1.4,0.5-3.5,1.5-6.3c-0.5-0.1-0.8-0.2-1-0.2v-0.9c0.4,0.1,0.9,0.1,1.3,0.1
		c0.8-2.1,1.7-3.8,2.6-5.3c0.9-1.5,1.7-2.2,2.3-2.2c0.2,0,0.4,0.1,0.5,0.2c0.2,0.1,0.2,0.3,0.2,0.6c0,0.3-0.2,0.8-0.5,1.5
		c-0.3,0.6-0.8,1.5-1.5,2.6c-0.6,1.1-1.1,2-1.5,2.8c2.1,0,3.8-0.1,5-0.2v1c-2.2,0.2-4,0.3-5.5,0.3c-0.9,2.3-1.4,4.1-1.4,5.5
		c0,0.8,0.1,1.3,0.4,1.6c0.2,0.3,0.6,0.5,1.1,0.5c0.9,0,1.8-0.4,2.8-1.3c1-0.8,1.8-2,2.5-3.4l0.4,0.3c-0.7,1.7-1.7,3.1-2.9,4.2
		c-1.2,1.1-2.4,1.6-3.7,1.6c-0.8,0-1.5-0.2-2-0.7C471.9,155.2,471.7,154.5,471.7,153.5z"/>
</g>
<path fill="#003D6B" d="M163.1,120c-0.5-3.1-2.6-5.2-5.9-5.5c-1.9-0.2-2.9-1.1-3.8-2.6c-3.7-6.5-7.5-13-11.1-19.5
	c-0.4-0.7-0.3-2,0.1-2.8c3.8-6.9,7.8-13.8,11.8-20.6c0.6-1,1.6-1.8,2.7-2.2c3-1.2,5-3.6,5.1-6.5c0-2.9-1.9-5.7-4.7-6.6
	c-3-1-5.6-0.1-7.8,2.4c-0.5,0.6-1.4,1.1-2.2,1.1c-7.9,0.1-15.8,0.1-23.7,0c-0.7,0-1.7-0.6-2.1-1.2c-3.9-6.6-7.8-13.3-11.5-20
	c-0.6-1.1-0.7-2.7-0.5-4c0.5-2.9-0.4-5.6-2.7-7.2c-2.3-1.5-5.5-1.6-7.7,0c-2.3,1.6-3.3,4.3-2.8,7.1c0.2,0.9,0.2,2.1-0.2,2.9
	c-3.8,6.9-7.8,13.7-11.7,20.6c-0.8,1.4-1.7,1.9-3.2,1.9c-7.1-0.1-14.2-0.1-21.3,0c-1.9,0-3.2-0.5-4.5-1.9c-2.1-2.4-4.8-2.9-7.6-1.7
	c-2.6,1.1-4.2,3.6-4.1,6.7c0.1,2.9,1.7,4.9,4.6,6.1c1.1,0.5,2.3,1.3,2.9,2.3c3.8,6.4,7.4,12.9,11.2,19.2c1.3,2.1,1.2,3.8-0.1,5.8
	c-3.5,5.7-6.8,11.5-10,17.3c-0.9,1.6-1.9,2.6-3.8,2.9c-3,0.5-4.9,2.6-5.4,5.6c-0.4,2.6,1,5.5,3.4,6.9c2.4,1.3,5.5,1,7.7-0.6
	c1.1-0.7,2.5-1.3,3.8-1.4c3.8-0.2,7.6-0.1,11.4-0.1c0,0,0,0,0,0c1.5,0,3,0,4.4,0c0.2-1.8,1.7-0.3,2.7-2.1c-0.1,0.9-0.4,1.6-0.5,2.1
	c1.8,0,3.6,0,5.4,0.1c0.8,0,2,0.6,2.4,1.3c4.1,7,8.2,14,12.2,21c0.4,0.7,0.5,1.8,0.3,2.6c-0.9,3.2-0.2,6.2,2.3,8.1
	c2.2,1.7,5.6,1.8,7.9,0.2c2.5-1.7,3.4-4.8,2.7-8c-0.2-1-0.1-2.3,0.3-3.2c3.9-7,7.9-13.8,11.8-20.7c0.7-1.2,1.5-1.4,2.7-1.4
	c8,0,16.1-0.1,24.1,0.1c1.2,0,2.6,0.6,3.6,1.4c2.5,1.9,5.4,2.4,8,1C162.2,125.7,163.6,122.8,163.1,120z M149.9,63
	c0-0.2,0.4-2.2,0.6-2.3c0.2-0.2,1.6-1,2.7-1.5c0,0,0-0.1,0-0.1l-0.5-0.9c0-0.5,0.5-0.5,1-0.5c1.1,0,1.8,0.4,1.9,0.8c0,0,0,0,0,0.1
	c0.6,0.2,1,0.5,1,0.7c0,0.2-0.8,0.4-1.6,0.5c0,0-0.9,0.1-0.9,0.1l3.3,2.9c0,0,0,0.1-0.1,0.1c-0.6-0.1-2.2-0.1-2.3-0.1
	c-0.2,0-0.6,1.8-0.8,2.1c0,0,0,0,0,0c-0.5,0-2.3-2.9-2.8-3.7c0-0.1-0.1,0-0.1,0v1.5c0,0.8-0.6,1.4-1.4,1.4h-0.6c0,0-0.1-0.1-0.1-0.1
	C149.3,63.8,149.9,63.1,149.9,63z M143.9,65.1c0,1.1,3.5,7.3,3.5,8.2c0,0.2-3.7-4-3.8-4L143.9,65.1z M124.7,64.4
	c1.1,0,1.9-0.5,2.7-0.5c0.2,0,1.5,0.7,1.5,0.9c0,0.1-0.7,1.4-0.7,1.6c0,0.2,1.8,2.2,2.3,2.7c0,0,0,0.1-0.1,0.1
	c-0.7-0.2-3.8-1.1-3.8-1.2c-0.2-0.3-0.7-1.9-0.7-2.3c0,0,0-0.1-0.1-0.1c-0.7,0.1-1.2,0.2-1.5,0.5c0,0,0,0,0,0.1c0,0.8-0.5,1.4-1,1.8
	c0,0,0,0,0,0v0.6c0,0,0,0.1-0.1,0.1h-1c0,0,0,0,0,0c0,0-0.1-0.2-0.2-0.5c-0.4,0.5-1.1,0.7-1.6,0.7c-0.7,0-1.6-0.7-1.6-1.5
	c0-0.6,0.5-0.9,1.4-0.9c0.3,0,0.6,0,0.9,0.1c0,0,0.1,0,0.1-0.1l-0.4-1c0,0,0,0,0,0v-0.7c0-0.5,0.5-1.6,2.1-1.6
	C123.7,63.3,123.2,64.4,124.7,64.4z M121.9,78.6c0-0.1-0.1,0-0.1,0V80c0,0.8-0.6,1.4-1.4,1.4h-0.6c0,0-0.1-0.1-0.1-0.1
	c0.2-0.3,0.7-0.9,0.7-1c0-0.2,0.4-2.2,0.6-2.3c0.2-0.2,1.6-1,2.7-1.5c0,0,0-0.1,0-0.1l-0.5-0.9c0-0.5,0.5-0.5,1-0.5
	c1.1,0,1.8,0.4,1.9,0.8c0,0,0,0,0,0.1c0.6,0.2,1,0.5,1,0.7c0,0.2-0.8,0.4-1.6,0.5c0,0-0.1,0.1,0,0.1l2.5,2.9c0,0,0,0.1-0.1,0.1
	c-0.6-0.1-2.2-0.1-2.3-0.1c-0.2,0-0.6,1.8-0.8,2.1c0,0,0,0,0,0C124.2,82.2,122.4,79.3,121.9,78.6z M123.7,97.7
	c-0.2,0.1-1,0.3-1.4,0.3c-1.1,0-2.4-0.1-3-0.1c0,0,0,0,0,0c-0.1-0.1-0.4-0.4-1.1-2.8c0,0,0,0,0,0c0.1-0.1,1.1-0.3,1.6-0.3
	c0.2,0,0.7,0.2,0.7,0.4L123.7,97.7C123.7,97.7,123.7,97.7,123.7,97.7z M121.6,73.1c0,0.4-3,0.5-3.7,1c-0.4,0.1-1.4,0.6-1.6,0.7
	c0,0,0,0,0,0.1v1.6c0,0.8-0.6,1.4-1.4,1.4h-0.6c0,0-0.1-0.1-0.1-0.1c0.2-0.3,0.7-0.9,0.7-1c0-0.2,0.4-2.2,0.6-2.3
	c0.5-0.4,3.1-1.8,3.9-2c0,0,0,0,0,0c0.2,0,0.4,0,0.6,0c0.6-0.7,1.8-1.9,2.7-2.1c0,0,0,0,0,0c0.4,0,0.9,0.1,0.9,0.2
	c0,0.4-0.5,1.2-0.9,1.7c-0.2,0.3-0.8,0.4-1.5,0.4C121.5,72.7,121.6,72.9,121.6,73.1z M118.4,74.9c0.1-0.1,1.1-0.3,1.6-0.3
	c0.2,0,0.7,0.2,0.7,0.4V76c0,1-0.2,1.7-1.2,1.7c0,0,0,0,0,0C119.4,77.7,119.2,77.3,118.4,74.9C118.4,74.9,118.4,74.9,118.4,74.9z
	 M117.2,57.3c0.1-0.1,1.1-0.3,1.6-0.3c0.2,0,0.7,0.2,0.7,0.4l3.2,2.6c0,0,0,0.1,0,0.1c-0.2,0.1-1,0.3-1.4,0.3c-1.1,0-2.4-0.1-3-0.1
	c0,0,0,0,0,0C118.2,60.1,117.9,59.7,117.2,57.3C117.2,57.3,117.1,57.3,117.2,57.3z M116.2,73.1c0,1.8-1.6,0.7-2.4,1.9
	c0,0.1-0.1,0-0.1,0c0-0.9,0.2-1.4,0.2-1.9c0,0,0-0.1,0.1-0.1L116.2,73.1C116.1,73,116.2,73.1,116.2,73.1z M114.6,70.9
	c0.5,0,1.1,0.2,1.1,0.7c0,0,0,0,0,0.1c-0.6,0.4-1.1,0.8-1.3,0.8c-0.5,0-0.9-0.5-0.9-0.9C113.4,71.2,114.3,70.9,114.6,70.9z
	 M103.9,95.6l-0.5-0.9c0-0.5,0.5-0.5,1-0.5c1.1,0,1.8,0.4,1.9,0.8c0,0,0,0,0,0.1c0.6,0.2,1,0.5,1,0.7c0,0.2-0.8,0.4-1.6,0.5
	c0,0-0.1,0.1,0,0.1l2.5,2.9c0,0,0,0.1-0.1,0.1c-0.6-0.1-2.2-0.1-2.3-0.1c-0.2,0-0.6,1.8-0.8,2.1c0,0,0,0,0,0c-0.5,0-2.3-2.9-2.8-3.7
	c0-0.1-0.1,0-0.1,0v1.5c0,0.8-0.6,1.4-1.4,1.4H100c0,0-0.1-0.1-0.1-0.1c0.2-0.3,0.7-0.9,0.7-1c0-0.2,0.4-2.2,0.6-2.3
	C101.5,96.9,102.8,96.2,103.9,95.6C104,95.7,104,95.7,103.9,95.6z M110.5,112.7c0,0.9,0.1,1.5,0.4,1.5c0,0,0.1-0.1,0.4-0.5
	c0.1,0.2,0.1,0.7,0.2,1.2c-0.1,0.4-0.4,0.6-0.4,0.7c0,0.2-0.6-1-1-1c0-0.2,0-0.6,0.1-0.9c-0.6,0.1-1.1,0.1-1.6,0.1h-2.2L110.5,112.7
	z M109.1,107.9c0-0.4,0.2-0.7,0.6-0.7c0.1,0.5,0.2,0.9,0.2,1.2l0.2-0.7c0.1,0,0.2,0.1,0.4,0.2c0,0.4-0.1,0.9-0.1,1.4
	c-0.2-0.1-0.5-0.1-0.7-0.4C109.4,108.5,109.1,108.1,109.1,107.9z M114.5,109.4c0-0.5,0.9-0.7,1.1-0.7c0.5,0,1.1,0.2,1.1,0.7
	c0,0,0,0,0,0.1c-0.6,0.4-1.1,0.8-1.3,0.8c-0.1,0-0.3,0-0.4-0.1l0.1,0.6h2.1c0,0,0.1,0,0.1,0.1c0,1.8-1.6,0.7-2.4,1.9
	c0,0.1-0.1,0-0.1,0c0-0.3,0-0.5,0.1-0.7c-0.8,0.2-0.8,0.8-2.1,0.9c0,0-0.2,0.4-0.5,0.9l-0.9-0.2c0.2-0.4,0.4-0.9,0.7-1.4l1.5-0.6
	c0.1,0.1,0.2,0.2,0.4,0.2c0.1,0,0.2-0.1,0.2-0.7c0.3-0.2,0.5-0.6,0.7-1C114.6,109.9,114.5,109.7,114.5,109.4z M113.9,123.9
	c0,0.2-0.3,0.6-0.4,0.6c-0.4,0-0.6-0.6-0.6-0.9C113.1,123.6,113.6,123.6,113.9,123.9C113.9,123.9,113.9,123.9,113.9,123.9z
	 M109.1,124.6C109.1,124.6,109.1,124.6,109.1,124.6c1.2,0,2.1,0.1,2.1,0.6c0,0.4-3,0.5-3.7,1c-0.4,0.1-1.4,0.6-1.6,0.7
	c0,0,0,0,0,0.1v1.6c0,0.8-0.6,1.4-1.4,1.4h-0.6c0,0-0.1-0.1-0.1-0.1c0.2-0.3,0.7-0.9,0.7-1c0-0.2,0.4-2.2,0.6-2.3
	C105.6,126.2,108.2,124.7,109.1,124.6z M102.5,111.1l0.1-2.2c2.2,0.1,0.5,1.7,2.3,2.7C103.8,111.5,103.1,111.1,102.5,111.1z
	 M100.6,103.8c-0.2,0.1-0.6,0.1-0.9,0.1c0-0.1,0.2-0.4,0.2-0.4S100.4,103.8,100.6,103.8z M99.8,96.9C99.8,96.9,99.8,96.9,99.8,96.9
	c-0.1-0.1-0.4-0.5-1.1-2.8c0,0,0,0,0,0c0.1-0.1,1.1-0.3,1.6-0.3c0.2,0,0.7,0.2,0.7,0.4v1.1C101,96.2,100.8,96.9,99.8,96.9z
	 M101.3,80.3c0-0.2-0.4-0.2-0.4-0.6c0-0.6,0.5-1,1.5-1C102.4,79.3,102.4,80.3,101.3,80.3z M99.6,79.8V82l-1.2-4.1
	c0.9,0,1.5-0.1,1.5-0.4c0,0-0.1-0.1-0.5-0.4c0.2-0.1,0.7-0.1,1.2-0.2c0.4,0.1,0.6,0.4,0.7,0.4c0.2,0-1,0.6-1,1c-0.2,0-0.6,0-0.9-0.1
	C99.6,78.8,99.6,79.3,99.6,79.8z M98.8,32.8C98.8,32.8,98.8,32.8,98.8,32.8c0.1-0.1,0.4-0.4,2.8-1.1c0,0,0,0,0,0
	c0.1,0.1,0.3,1.1,0.3,1.6c0,0.2-0.2,0.7-0.4,0.7L99,37.2c0,0-0.1,0-0.1,0c-0.1-0.2-0.3-1-0.3-1.4C98.6,34.7,98.8,33.3,98.8,32.8z
	 M97.6,73.2c0.1,1.2,0.9,1,1,2.5c0,0,0.4,0.2,0.9,0.5L99.2,77c-0.4-0.2-0.9-0.4-1.4-0.7l-0.6-1.5c0.1-0.1,0.2-0.2,0.2-0.4
	c0-0.1-0.1-0.2-0.7-0.2c-0.2-0.4-0.7-0.6-1.2-0.7L97.6,73.2z M97.2,83.5c-0.1,1.1-0.5,1.9-0.5,2.5l-2.2-0.1
	C94.6,83.6,96.2,85.3,97.2,83.5z M93.3,78.2c0-0.1,0.1-0.2,0.2-0.4c0.4,0,0.9,0.1,1.4,0.1c-0.1,0.2-0.1,0.5-0.4,0.7
	c-0.4,0.4-0.7,0.6-1,0.6c-0.4,0-0.7-0.2-0.7-0.6c0.5-0.1,0.9-0.2,1.2-0.2L93.3,78.2z M86.8,74v1.6c-0.5-0.2-0.9-0.6-0.9-1
	C86,74.3,86.2,74.1,86.8,74z M76.9,112.3c0.1,1.2,0.9,1,1,2.5c0,0,0.4,0.2,0.9,0.5l-0.2,0.9c-0.4-0.2-0.9-0.4-1.4-0.7l-0.6-1.5
	c0.1-0.1,0.2-0.2,0.2-0.4c0-0.1-0.1-0.2-0.7-0.2c-0.2-0.4-0.7-0.6-1.2-0.7L76.9,112.3z M72.8,61c0.5,0,0.7,0.9,0.7,1.1
	c0,0.5-0.2,1.1-0.7,1.1c0,0,0,0-0.1,0c-0.4-0.6-0.8-1.1-0.8-1.3C71.9,61.4,72.4,61,72.8,61z M71.8,67.7c0-0.1,0.1-0.1,0.1-0.1
	c0.7,0.5,2,1.8,2.2,2.8c0,0,0,0,0,0c0,0.4-0.1,0.9-0.2,0.9c-0.4,0-1.2-0.5-1.7-0.9c-0.4-0.2-0.4-1-0.4-1.9V67.7z M73.2,73.9
	c0.6,0,0.9,0.5,0.9,1.4c0,1-0.5,2.1-1,2.1c-0.7,0-1.4-1.1-1.4-1.9C71.7,74.7,72.4,73.9,73.2,73.9z M69.5,61.3c0.9,0,1.4,0.2,1.9,0.2
	c0,0,0.1,0,0.1,0.1v2.1c0,0,0,0.1-0.1,0.1c-1.8,0-0.7-1.6-1.9-2.4C69.4,61.3,69.4,61.3,69.5,61.3z M69.3,73.2
	C69.3,73.2,69.4,73.3,69.3,73.2c0.2,0.2,1.9,1.5,2.2,2.5c0,0,0,0.1-0.1,0.1c-1.8-0.3-2.7-1.2-2.7-1.8C68.7,73.6,69,73.3,69.3,73.2z
	 M71.5,89.7c0,1.5-2.8,0.5-4,1.7c0-0.9,0.4-1.2,0.4-1.7H71.5z M68.1,82.1c0.2,0,0.5,0.4,0.5,0.6c0,0.4-0.5,1.6-2.2,2.1
	C66.6,83,67.5,82.1,68.1,82.1z M65.9,93.5c0.2,0,0.7,0.2,0.7,0.4V95c0,1-0.2,1.7-1.2,1.7c0,0-0.2,0-1.1-2.8
	C64.3,93.8,65.4,93.5,65.9,93.5z M78.9,118.8v2.2l-1.2-4c-0.9,0-1.8,0-2.4,0c-0.4,0-0.8,0-1,0c-0.1,0.2-0.1,0.5-0.4,0.7
	c-0.1,0.1-0.2,0.2-0.3,0.3c-0.1,0.4-0.2,0.8-0.3,0.9c0,0,0,0-0.1,0c-0.3,0-1.1-0.1-1.1-0.2c-0.2-0.3-0.7-1.9-0.7-2.3
	c0,0,0-0.1-0.1-0.1c-1.4,0.1-2,0.7-2.4,1.4c0,0,0,0.1,0,0.1c0.4,0.1,0.8,0.3,0.9,0.6c0,0,0,0,0,0c1,0,1.7,0.4,1.7,0.9
	c0,0.5,0,1.8-0.7,2.4c0,0,0,0.1,0,0.1c0.3,0.1,0.7,0.5,0.8,0.8c0,0,0,0,0,0.1c-0.5,0.3-1,0.8-1.2,0.8c-0.6,0-0.9-0.6-0.9-0.9
	c0-0.2,0.2-0.5,0.5-0.7c0,0,0,0,0-0.1c-0.2-0.6-0.8-1.7-0.8-2c0,0,0,0-0.1,0c-0.5,0.1-1.4,1.2-1.7,1.2c-0.4,0-0.8-0.7-0.9-1.4
	c-0.1,0-0.1,0-0.2,0c-0.6,0-1.8-0.4-3.1-0.6c-0.1,0.1-0.3,0.2-0.3,0.3c-0.2,0.2-0.6,0.4-1.1,0.4c0,0-0.1,0-0.1,0.1
	c0,0.8-0.6,1.4-1.4,1.4h-0.6c0,0-0.1-0.1-0.1-0.1c0.1-0.2,0.5-0.7,0.7-0.9c0,0,0-0.1,0-0.1l-2.8-0.3c-0.1,0-0.1-0.1,0-0.1l3-0.5
	c0,0,0,0,0,0c0,0,0,0,0,0c-0.1-0.1-0.1-0.2-0.1-0.4c0,0,0.1-0.1,0.2-0.1c0.1-0.4,0.3-0.7,0.3-0.8c0.1-0.1,0.6-0.5,1.2-0.7
	c0,0,0.1-0.1,0-0.1c-0.4-0.7-1.1-1.3-1.1-2c0-0.1,0.1-0.2,0.2-0.4c-0.4-0.6-0.6-1.3-0.9-1.8c0,0,0,0,0,0l-5.1-4.3c0,0,0-0.1,0-0.1
	c0.4-0.2,2.5-0.4,3.4-0.4c1.4,0,3.2,0.1,4.1,0.1c1.1,0,0.4,3.5,1.9,3.5c1.1,0,7.3-3.5,8.2-3.5c0.2,0-4,3.7-4,3.8
	c0,0.1-0.7,1.4-0.7,1.6c0,0.1,0,0.2-0.1,0.5c1.1,0.1,0.6,1.1,2.1,1.1c1.1,0,2.5,0.4,3.3,0.4c0.2,0,3.1,0.6,5.4,1
	c-0.1-0.1-0.2-0.2-0.4-0.3c0.2-0.1,0.7-0.1,1.2-0.2c0.4,0.1,0.6,0.4,0.7,0.4c0.1,0-0.2,0.2-0.5,0.4c0.8,0.2,1.4,0.3,1.4,0.3
	c0,0-0.2,0-0.5,0c-0.3,0-0.7,0-1.2,0c-0.1,0.1-0.2,0.2-0.2,0.3c-0.2,0-0.6,0-0.9-0.1C78.9,117.8,78.9,118.3,78.9,118.8z M80.6,119.3
	c0-0.2-0.4-0.2-0.4-0.6c0-0.6,0.5-1,1.5-1C81.7,118.3,81.7,119.3,80.6,119.3z M82.8,102.4C82.8,102.5,82.7,102.5,82.8,102.4
	c-0.3,0-0.6-0.2-0.6-0.3c0-0.4,0.6-0.6,0.9-0.6C83,101.7,83,102.2,82.8,102.4z M84.8,90.1l-1.2,0.2c0.1-0.6,0.4-1.1,0.6-1.5l1.4-0.6
	c0.1,0.1,0.2,0.2,0.2,0.4C85.8,88.9,85.6,89.6,84.8,90.1z M87.1,80.6c-0.7,0-2.5-0.6-4-0.6c-0.5,0-0.9,0.1-1.2,0.2
	c-0.6,0-0.6-0.2-0.6-0.6c0.1-0.1,0.7-0.2,0.9-0.2c0.2,0.1,0.4,0.1,0.7,0.1c1.6,0,1-0.4,3-0.4c0.4,0,0.2-0.4,0.6-0.4
	c0,0.2,0.2,0.4,0.6,0.5c0,0.4,0.1,0.5,0.2,0.6c0.1,0.2,0.2,0.4,0.2,0.5C87.6,80.5,87.3,80.6,87.1,80.6z M88.9,58.9
	c-1.5,0-0.5-2.8-1.7-4c0.9,0,1.2,0.4,1.7,0.4V58.9z M89.2,88.4c0,0,0.2-0.4,0.2-0.6c0.1,0.2,0.1,0.6,0.1,0.9
	C89.4,88.7,89.2,88.4,89.2,88.4z M88.9,49.5c1.9,0.2,2.7,1.1,2.7,1.7c0,0.2-0.4,0.5-0.6,0.5C90.6,51.8,89.4,51.3,88.9,49.5z
	 M94.3,115.4h-1.1c-1,0-1.7-0.2-1.7-1.2c0,0,0,0,0,0c0.1-0.1,0.5-0.4,2.8-1.1c0,0,0,0,0,0c0.1,0.1,0.3,1.1,0.3,1.6
	C94.7,114.9,94.4,115.4,94.3,115.4z M96.2,116.3c-0.4,0-0.5-3-1-3.7c-0.1-0.4-0.6-1.4-0.7-1.6c0,0,0,0-0.1,0h-1.6
	c-0.8,0-1.4-0.6-1.4-1.4V109c0,0,0.1-0.1,0.1-0.1c0.3,0.2,0.9,0.7,1,0.7c0.2,0,2.2,0.4,2.3,0.6c0.4,0.5,1.8,3.1,2,3.9c0,0,0,0,0,0
	C96.8,115.4,96.7,116.3,96.2,116.3z M96.6,94C96.6,94,96.6,94,96.6,94l0,1.7c0,0.8-0.6,1.4-1.4,1.4h-0.6c0,0-0.1-0.1-0.1-0.1
	c0.2-0.3,0.7-0.9,0.7-1c0-0.2,0.4-2.2,0.6-2.3c0.5-0.4,3.1-1.8,4-2c0,0,0,0,0,0c1.2,0,2.1,0.1,2.1,0.6c0,0.4-3,0.5-3.7,1
	C97.7,93.3,96.8,93.9,96.6,94z M98.3,99.2L98,98c0.6,0.1,1.1,0.4,1.5,0.6l0.6,1.4c-0.1,0.1-0.2,0.2-0.4,0.2
	C99.5,100.2,98.8,100,98.3,99.2z M107.8,146.6c-0.6-0.1-2.2-0.1-2.3-0.1c-0.2,0-0.6,1.8-0.8,2.1c0,0,0,0,0,0c-0.5,0-2.3-2.9-2.8-3.7
	c0-0.1-0.1,0-0.1,0v1.5c0,0.8-0.6,1.4-1.4,1.4h-0.6c0,0-0.1-0.1-0.1-0.1c0.2-0.3,0.7-0.9,0.7-1c0-0.2,0.4-2.2,0.6-2.3
	c0.2-0.2,1.6-1,2.7-1.5c0,0,0-0.1,0-0.1l-0.5-0.9c0-0.5,0.5-0.5,1-0.5c1.1,0,1.8,0.4,1.9,0.8c0,0,0,0,0,0.1c0.6,0.2,1,0.5,1,0.7
	c0,0.2-0.8,0.4-1.6,0.5c0,0-0.1,0.1,0,0.1l2.5,2.9C107.9,146.5,107.8,146.6,107.8,146.6z M109,129.9c-0.1-0.1-0.4-0.5-1.1-2.8
	c0,0,0,0,0,0c0.1-0.1,1.1-0.3,1.6-0.3c0.2,0,0.7,0.2,0.7,0.4v1.1C110.3,129.1,110.1,129.9,109,129.9
	C109.1,129.9,109.1,129.9,109,129.9z M117.4,132.3c-0.6-0.1-2.2-0.1-2.3-0.1c-0.2,0-0.6,1.8-0.8,2.1c0,0,0,0,0,0
	c-0.5,0-2.3-2.9-2.8-3.7c0-0.1-0.1,0-0.1,0v1.5c0,0.8-0.6,1.4-1.4,1.4h-0.6c0,0-0.1-0.1-0.1-0.1c0.2-0.3,0.7-0.9,0.7-1
	c0-0.2,0.4-2.2,0.6-2.3c0.2-0.2,1.6-1,2.7-1.5c0,0,0-0.1,0-0.1l-0.5-0.9c0-0.5,0.5-0.5,1-0.5c1.1,0,1.8,0.4,1.9,0.8c0,0,0,0,0,0.1
	c0.6,0.2,1,0.5,1,0.7c0,0.2-0.8,0.4-1.6,0.5c0,0-0.1,0.1,0,0.1l2.5,2.9C117.5,132.2,117.5,132.3,117.4,132.3z M119.5,105.9
	c-0.5,0.3-1,0.8-1.2,0.8c-0.6,0-0.9-0.6-0.9-0.9c0-0.2,0.2-0.5,0.5-0.7c0,0,0,0,0-0.1c-0.2-0.6-0.8-1.7-0.8-2c0,0,0,0-0.1,0
	c-0.5,0.1-1.4,1.2-1.7,1.2c-0.7,0-1.1-1.9-1.1-2.6c0-0.1,0-0.3,0.1-0.4h-1.5c-0.2,0.4-1.7,0.9-2.1,1.4c-0.2,0.2-0.6,0.4-1.1,0.4
	c0,0-0.1,0-0.1,0.1c0,0.1,0,0.1,0,0.2c0.3-0.1,0.6-0.1,0.8-0.1c0.2,0,0.7,0.2,0.7,0.4v1.1c0,1-0.2,1.7-1.2,1.7c0,0,0,0,0,0
	c-0.1-0.1-0.3-0.4-0.9-2.1c-0.2,0.2-0.5,0.2-0.8,0.2h-0.6c0,0-0.1-0.1-0.1-0.1c0.1-0.2,0.5-0.7,0.7-0.9c0,0,0-0.1,0-0.1l-1.1-0.1
	c-0.2,0.1-0.3,0.2-0.3,0.2c0,0,0,0,0,0.1v1.6c0,0.8-0.6,1.4-1.4,1.4h-0.6c0,0-0.1-0.1-0.1-0.1c0.2-0.3,0.7-0.9,0.7-1
	c0-0.2,0.3-2,0.6-2.3l-0.5-0.1c-0.1,0-0.1-0.1,0-0.1l1.1-0.2c0.4-0.2,0.9-0.5,1.5-0.8c-0.1-0.1-0.2-0.3-0.2-0.4c0-0.7,0.6-2.5,0.6-4
	c0-0.5-0.1-0.9-0.2-1.2c0-0.2,0-0.4,0.1-0.5l-5-4.1c0,0,0-0.1,0-0.1c0.4-0.2,2.5-0.4,3.4-0.4c1.4,0,3.2,0.1,4.1,0.1
	c1.1,0,0.4,3.5,1.9,3.5c1.1,0,7.3-3.5,8.2-3.5c0.2,0-4,3.7-4,3.8c0,0.1-0.7,1.4-0.7,1.6c0,0.1,0,0.2-0.1,0.5
	c1.1,0.1,0.6,1.1,2.1,1.1c1.1,0,2.5,0.4,3.3,0.4c0.2,0,7.9,1.5,7.9,1.6c0,0-0.2,0-0.5,0c-1.1,0-4.1-0.1-5.8-0.1
	c-0.9,0-1.5,0-1.5,0.1c0,0.2-0.4,1.5-0.5,1.8c0,0,0,0-0.1,0c-0.3,0-1.1-0.1-1.1-0.2c-0.2-0.3-0.7-1.9-0.7-2.3c0,0,0-0.1-0.1-0.1
	c-1.4,0.1-2,0.7-2.4,1.4c0,0,0,0.1,0,0.1c0.4,0.1,0.8,0.3,0.9,0.6c0,0,0,0,0,0c1,0,1.7,0.4,1.7,0.9c0,0.5,0,1.8-0.7,2.4
	c0,0,0,0.1,0,0.1C119.1,105.2,119.5,105.5,119.5,105.9C119.6,105.8,119.5,105.8,119.5,105.9z M123.9,110c-0.2,0.4-1,0.4-1.9,0.4
	h-0.9c-0.1,0-0.1-0.1-0.1-0.1c0.5-0.7,1.8-2,2.8-2.2c0,0,0,0,0,0c0.4,0,0.9,0.1,0.9,0.2C124.7,108.7,124.3,109.6,123.9,110z
	 M127.5,113.5c-0.4,0-0.7-0.2-0.7-0.6c0,0,0,0,0,0c0.1-0.2,1.5-1.9,2.5-2.2c0,0,0.1,0,0.1,0.1C129,112.6,128.1,113.5,127.5,113.5z
	 M128.9,110.5c-0.7,0-1.6-0.7-1.6-1.5c0-0.6,0.5-0.9,1.4-0.9c1,0,2.1,0.5,2.1,1C130.8,109.9,129.7,110.5,128.9,110.5z M131.4,106.9
	c-0.7-0.2-3.8-1.1-3.8-1.2c-0.2-0.3-0.7-1.9-0.7-2.3c0,0,0-0.1-0.1-0.1c-0.7,0.1-1.2,0.2-1.5,0.5c0,0,0,0,0,0.1c0,0.8-0.5,1.4-1,1.8
	c0,0,0,0,0,0v0.6c0,0,0,0.1-0.1,0.1h-1c0,0,0,0,0,0c0,0-0.1-0.2-0.2-0.5c-0.4,0.5-1.1,0.7-1.6,0.7c-0.7,0-1.6-0.7-1.6-1.5
	c0-0.6,0.5-0.9,1.4-0.9c0.3,0,0.6,0,0.9,0.1c0,0,0.1,0,0.1-0.1l-0.4-1c0,0,0,0,0,0v-0.7c0-0.5,0.5-1.6,2.1-1.6
	c1.1,0,0.6,1.1,2.1,1.1c1.1,0,1.9-0.5,2.7-0.5c0.2,0,1.5,0.7,1.5,0.9c0,0.1-0.7,1.4-0.7,1.6c0,0.2,1.8,2.2,2.3,2.7
	C131.5,106.9,131.5,106.9,131.4,106.9z M141.1,72.2c0.2,0-4,3.7-4,3.8l-4.2-0.4C134,75.7,140.2,72.2,141.1,72.2z M134.3,112.3
	c-0.4,0-0.7-0.4-0.7-1.1c0-0.4,0.4-1.1,0.7-1.1c0.2,0,0.6,0.7,0.6,1.1C134.9,111.9,134.5,112.3,134.3,112.3z M134.7,87.5
	C134.6,87.5,134.6,87.5,134.7,87.5c0.1-0.4,0.6-1,0.6-1.1c0-0.2,0.4-2.2,0.6-2.3c0.5-0.4,3.1-1.8,3.9-2c0,0,0,0,0,0
	c1.2,0,2.1,0.1,2.1,0.6c0,0.4-3,0.5-3.7,1c-0.4,0.1-1.4,0.6-1.6,0.7c0,0,0,0,0,0.1v1.6c0,0.8-0.6,1.4-1.4,1.4H134.7z M136,107.8
	c0.2-1.9,1.1-2.7,1.7-2.7c0.2,0,0.5,0.4,0.5,0.6C138.3,106.1,137.8,107.3,136,107.8z M140.6,113.1c0,1-0.2,1.7-1.2,1.7
	c0,0-0.2,0-1.1-2.8c0-0.1,1.1-0.4,1.6-0.4c0.2,0,0.7,0.2,0.7,0.4V113.1z M141.1,85.7c0,1-0.2,1.7-1.2,1.7c0,0,0,0,0,0
	c-0.1-0.1-0.4-0.5-1.1-2.8c0,0,0,0,0,0c0.1-0.1,1.1-0.3,1.6-0.3c0.2,0,0.7,0.2,0.7,0.4V85.7z M141.5,109.6c0-0.9,0.4-1.2,0.4-1.7
	h3.6C145.4,109.3,142.6,108.3,141.5,109.6z M155.5,120.1c-0.6-0.1-2.2-0.1-2.3-0.1c-0.2,0-0.6,1.8-0.8,2.1c0,0,0,0,0,0
	c-0.5,0-2.3-2.9-2.8-3.7c0-0.1-0.1,0-0.1,0v1.5c0,0.8-0.6,1.4-1.4,1.4h-0.6c0,0-0.1-0.1-0.1-0.1c0.2-0.3,0.7-0.9,0.7-1
	c0-0.2,0.4-2.2,0.6-2.3c0.2-0.2,1.6-1,2.7-1.5c0,0,0-0.1,0-0.1l-0.5-0.9c0-0.5,0.5-0.5,1-0.5c1.1,0,1.8,0.4,1.9,0.8c0,0,0,0,0,0.1
	c0.6,0.2,1,0.5,1,0.7c0,0.2-0.8,0.4-1.6,0.5c0,0-0.1,0.1,0,0.1l2.5,2.9C155.6,120,155.6,120.1,155.5,120.1z"/>
</svg>
