<?xml version="1.0" encoding="utf-8"?>
<!-- Generator: Adobe Illustrator 18.0.0, SVG Export Plug-In . SVG Version: 6.00 Build 0)  -->
<!DOCTYPE svg PUBLIC "-//W3C//DTD SVG 1.1//EN" "http://www.w3.org/Graphics/SVG/1.1/DTD/svg11.dtd">
<svg version="1.1" id="Ebene_1" xmlns="http://www.w3.org/2000/svg" xmlns:xlink="http://www.w3.org/1999/xlink" x="0px" y="0px"
	 viewBox="-247 0 1052 655.9" enable-background="new -247 0 1052 655.9" xml:space="preserve">
<path display="none" fill="#FFFFFF" d="M543.2,264.7c-17.3,7.4-37.2,14.9-59.5,14.9c22.3-12.4,39.7-32.2,47.1-57.1
	c-19.9,12.4-42.2,19.9-64.5,24.8c-19.9-19.9-44.6-32.2-74.4-32.2c-57,0-101.6,44.6-101.6,101.7c0,7.4,0,14.9,2.5,22.3
	c-86.8,0-163.7-42.2-213.3-104.2c-9.9,14.9-14.9,32.2-14.9,52.1c0,34.7,17.3,67,44.6,84.3c-17.3,0-32.2-5-47.1-12.4l0,0
	c0,49.6,34.7,91.7,81.9,101.7c-7.4,2.5-17.3,2.5-27.3,2.5c-7.4,0-12.4,0-19.9-2.5c12.4,39.7,52.1,69.4,96.7,72
	c-34.7,27.3-79.4,44.6-126.5,44.6c-7.4,0-17.3,0-24.8-2.5c44.6,29.8,99.2,47.1,156.3,47.1c188.6,0,292.7-156.3,292.7-292.7
	c0-5,0-9.9,0-12.4C513.4,301.9,530.8,284.6,543.2,264.7z"/>
<g>
	<polygon fill="#FFFFFF" points="727.5,215.7 222.5,217.3 478.4,473.1 	"/>
	<polygon fill="#FFFFFF" points="784,214.7 480.1,528.5 169.1,217.6 163,217.6 128.9,623.3 759.1,623.3 793.3,214.7 	"/>
</g>
<polygon fill="#FFFFFF" points="-225.5,215.3 103.2,215.3 96.1,272.7 -232.6,272.7 "/>
<polygon fill="#FFFFFF" points="-138.1,299.4 103.2,299.4 96.1,356.9 -145.2,356.9 "/>
<polygon fill="#FFFFFF" points="-58.5,380 103.2,380 96.1,437.5 -65.6,437.5 "/>
</svg>
